<svg width="22" height="22" fill="none" xmlns="http://www.w3.org/2000/svg"><path d="M9.447 16.796a6 6 0 1 1 3.106-11.592M9.447 16.795a6 6 0 1 0 3.106-11.59m-3.106 11.59a2 2 0 1 1-1.035 3.864 2 2 0 0 1 1.035-3.863Zm3.106-11.59a2 2 0 1 1 1.035-3.864 2 2 0 0 1-1.035 3.863Zm-9.211-.398a2 2 0 1 0 3.864 1.035 2 2 0 0 0-3.864-1.035ZM16.865 8.43a2 2 0 1 0 3.864 1.036 2 2 0 0 0-3.864-1.036ZM1.27 12.534a2 2 0 1 0 3.864 1.036 2 2 0 0 0-3.864-1.036Zm13.523 3.624a2 2 0 1 0 3.865 1.035 2 2 0 0 0-3.865-1.035Z" stroke="#8758FF" stroke-width="2" stroke-linecap="round" stroke-linejoin="round"/></svg>